<svg xmlns="http://www.w3.org/2000/svg" x="0px" y="0px" width="100" height="100" viewBox="0 0 120 120">
<polygon points="22.033,106 22.033,16.182 94.933,16.182 95.033,106" opacity=".35"></polygon><rect width="73" height="90" x="22.033" y="12" fill="#0075ff"></rect><rect width="14" height="90" x="22.033" y="12" fill="#0037ff"></rect><circle cx="65.5" cy="48.5" r="9.5" opacity=".35"></circle><path d="M81,80H50v-1.5C50,69.94,56.94,63,65.5,63h0C74.06,63,81,69.94,81,78.5V80z" opacity=".35"></path><circle cx="65.5" cy="44.5" r="9.5" fill="#a4e2f1"></circle><path fill="#a4e2f1" d="M81,76H50v-1.5C50,65.94,56.94,59,65.5,59h0C74.06,59,81,65.94,81,74.5V76z"></path>
</svg>